<svg width="91" height="64" viewBox="0 0 91 64" fill="none" xmlns="http://www.w3.org/2000/svg">
<path fill-rule="evenodd" clip-rule="evenodd" d="M90.859 58.7454C87.0562 65.1926 81.0338 63.3218 79.2251 61.8571C78.4553 62.3794 77.1055 63.5242 75.3056 63.392C71.4725 63.1106 70.0998 57.6329 70.0998 57.6329C70.1274 57.6548 68.958 58.0364 68.326 58.0296C68.3179 59.636 66.9293 63.4733 63.1818 63.4242C58.9765 63.3694 58.1216 57.1043 58.1216 57.1043C58.1216 57.1043 57.7031 57.6854 56.1119 58.2642C56.192 57.03 56.1335 63.2364 51.0933 63.3276C47.1087 63.3998 46.0331 57.0076 46.0331 57.0076C46.0331 57.0076 45.3418 57.7257 44.0022 57.9748C44.0873 56.7205 43.9489 63.3487 38.9081 63.3276C35.5016 63.3135 34.3375 59.39 34.4281 58.8455C34.5436 58.1515 33.2768 63.4252 29.9679 63.343C28.6024 63.3029 27.5844 62.3143 26.9456 60.9962C26.0904 61.9747 24.8489 63.343 23.4561 63.343C20.956 63.343 19.8538 61.252 20.0405 55.2795C20.0564 54.5711 20.0053 54.2925 19.3011 54.1865C18.8784 54.116 18.4456 53.9825 17.9876 53.9121C17.8408 54.4019 16.5958 63.1837 12.3146 63.3503C10.8783 63.4063 10.093 62.1621 9.44803 61.2387C8.45937 62.5466 7.15429 63.392 5.29509 63.392C2.14574 63.392 0 60.8461 0 57.7055C0 54.5648 2.14574 52.0191 5.29509 52.0191C5.85192 52.0191 6.00824 52.0989 6.51694 52.2473C5.47078 42.7222 7.9414 41.2336 10.1027 41.2336C12.1776 41.2336 15.7224 46.0495 10.7346 58.2651C11.842 61.9087 14.2293 61.7026 15.3765 54.2021C15.61 52.6774 14.9857 50.62 15.9567 50.3329C17.7318 49.8081 17.9202 51.3826 18.7525 51.645C19.6325 51.9222 20.1462 51.8951 20.9911 52.0716C22.4347 52.3535 22.9981 53.129 22.8222 54.8563C22.611 57.0419 22.2415 60.2229 23.3681 60.6106C24.1805 60.8923 25.6638 59.2075 25.9241 58.2856C26.1843 57.3637 26.2387 57.0482 26.2618 56.3721C26.297 54.927 26.3411 53.8677 26.5876 52.7748C26.6931 52.3519 26.8133 52.0718 27.2917 52.0527C27.6854 52.0426 28.4054 51.9241 28.7224 52.1708C29.1448 52.4882 29.092 52.8102 29.0435 53.6579C28.5522 65.7434 32.3335 59.7102 33.4609 54.8794C33.0595 49.417 33.3351 41.3336 36.7581 41.1981C38.5384 41.1276 39.3254 42.5537 39.412 43.6183C39.6568 46.6248 38.2853 51.6051 36.4814 54.9544C35.4505 61.7884 40.9889 63.1396 41.8746 57.6848C40.4256 56.9958 38.8595 54.2071 40.1339 52.8481C40.8489 52.0854 43.8255 53.1811 43.8742 55.5708C45.3343 55.1803 45.5292 54.356 45.5495 54.4926C45.1481 49.0301 45.5204 41.3337 48.9436 41.1981C50.7236 41.1276 51.5106 42.5538 51.5971 43.6183C51.842 46.6249 50.4704 51.6052 48.6668 54.9545C47.6357 61.7884 53.1743 63.1397 54.0597 57.6849C52.9869 57.4779 50.7222 54.5117 52.0289 52.8482C52.7272 51.9592 55.6928 53.8079 56.0249 55.65C57.4275 55.253 57.618 54.4549 57.6381 54.5892C57.2366 49.1269 57.6089 41.4305 61.0322 41.2949C62.8122 41.2244 63.5991 42.6506 63.6856 43.7151C63.9305 46.7217 62.5589 51.7021 60.7551 55.0514C59.7243 61.8854 65.2627 63.2364 66.1484 57.7815C64.6741 57.536 62.5788 54.4042 64.2652 52.802C64.9389 52.1619 67.5134 53.8236 68.116 55.7194C68.9533 55.6872 69.4746 55.3984 69.5863 55.3693C68.2495 48.9567 69.2447 41.2625 72.9272 41.1982C74.9175 41.1636 76.8634 42.2743 76.0093 48.375C75.194 54.1959 72.2635 56.6386 72.2703 56.676C72.4408 57.3733 73.9446 63.2093 77.7314 60.13C77.5354 59.6862 77.3391 59.2327 77.2294 58.6834C76.6018 55.4834 77.8346 51.869 81.1854 51.2848C83.1053 50.9502 84.9138 51.8849 85.1997 53.9921C85.6702 57.4401 82.5566 59.9372 81.3727 60.4789C80.8424 60.1777 86.1796 63.6007 89.3472 56.7409C89.5308 56.3492 89.7522 56.3824 90.0391 56.5843C90.2417 56.7269 91.3957 57.8201 90.859 58.7454ZM7.58595 56.8582C7.42479 56.3764 7.09404 55.3147 6.97708 54.8547C6.33294 54.2945 5.87318 54.2035 5.04637 54.2035C3.20895 54.2035 2.12747 55.9024 2.12747 57.7342C2.12747 59.5659 3.30566 61.265 5.14309 61.265C6.73544 61.265 7.94735 60.1823 8.3171 58.6497C8.0583 58.0522 7.80157 57.5031 7.58595 56.8582ZM10.0576 43.755C8.76657 43.755 8.32861 46.8348 8.4136 49.4623C8.48878 51.7852 9.13789 53.8303 9.47461 54.7467C9.5601 54.8615 9.54422 54.7868 9.62055 54.9085C11.8623 49.9968 10.9325 43.755 10.0576 43.755ZM36.9425 43.8517C35.2739 43.6603 35.2847 50.6115 35.4918 52.1708C36.3585 50.7844 37.8639 44.225 36.9425 43.8517ZM49.1277 43.8517C47.459 43.6603 47.4698 50.6115 47.6771 52.1708C48.5436 50.7844 50.0492 44.225 49.1277 43.8517ZM61.2163 43.9484C59.5475 43.7571 59.5583 50.7083 59.7656 52.2676C60.6321 50.8811 62.1377 44.3217 61.2163 43.9484ZM73.1113 43.4448C70.5115 43.9669 71.1169 52.6352 71.5118 54.1555C74.5741 49.9493 74.6372 43.2868 73.1113 43.4448ZM82.8549 54.2773C82.7227 53.7246 82.0618 53.4292 81.6056 53.502C80.3002 53.6803 79.0341 55.3061 79.5242 57.7813C79.6333 58.3325 79.9063 58.84 79.9018 58.8231C82.8233 56.8631 83.0716 55.3186 82.8549 54.2773ZM27.8035 50.1394C27.4304 50.1395 27.0657 50.0289 26.7554 49.8217C26.4452 49.6144 26.2033 49.3198 26.0605 48.9752C25.9176 48.6305 25.8803 48.2512 25.9531 47.8853C26.0258 47.5193 26.2055 47.1832 26.4693 46.9193C26.733 46.6555 27.0691 46.4758 27.4351 46.403C27.801 46.3302 28.1803 46.3676 28.525 46.5104C28.8698 46.6531 29.1643 46.8949 29.3716 47.2051C29.5788 47.5154 29.6895 47.8801 29.6895 48.2532C29.6895 48.5009 29.6407 48.7462 29.5459 48.975C29.4512 49.2038 29.3123 49.4117 29.1371 49.5869C28.9619 49.762 28.7541 49.901 28.5253 49.9958C28.2965 50.0906 28.0512 50.1394 27.8035 50.1394Z" fill="white"/>
<g clip-path="url(#clip0)">
<path d="M14.5 29.1956C22.4955 29.1956 29 22.6899 29 14.6956C29 6.70122 22.4943 0.195557 14.5 0.195557C6.50567 0.195557 0 6.70002 0 14.6956C0 22.6911 6.50446 29.1956 14.5 29.1956ZM14.5 2.00806C21.4938 2.00806 27.1875 7.69931 27.1875 14.6956C27.1875 21.6894 21.4938 27.3831 14.5 27.3831C7.50375 27.3831 1.8125 21.6894 1.8125 14.6956C1.8125 7.69931 7.50375 2.00806 14.5 2.00806Z" fill="white"/>
<path d="M21.4385 6.32302C19.5559 4.75943 17.138 3.82056 14.5002 3.82056C13.739 3.82056 12.9958 3.90031 12.2781 4.04893C13.5976 5.91943 14.7963 7.86606 15.8511 9.88398C17.8461 8.95356 19.7239 7.75368 21.4385 6.32302Z" fill="white"/>
<path d="M17.9629 14.5166C20.3699 14.0212 22.8748 13.9753 25.3579 14.3873C25.2854 11.7954 24.3103 9.43194 22.7298 7.60132C20.8641 9.17336 18.8124 10.4759 16.6338 11.4946C17.1098 12.4878 17.5521 13.4944 17.9629 14.5166Z" fill="white"/>
<path d="M14.1593 10.5691C13.0694 8.50161 11.8357 6.50786 10.4582 4.60474C7.19325 5.91336 4.71859 8.75536 3.91263 12.2438C7.4325 12.3937 10.9161 11.8076 14.1593 10.5691Z" fill="white"/>
<path d="M16.1965 14.9676C15.8183 14.036 15.4087 13.1189 14.9712 12.2114C11.832 13.4343 8.47886 14.1013 5.06894 14.1013C4.60011 14.1013 4.12886 14.0723 3.65761 14.0469C3.64553 14.262 3.62498 14.4771 3.62498 14.6958C3.62498 17.3662 4.59165 19.8094 6.18786 21.7017C8.79907 18.4585 12.3105 16.1349 16.1965 14.9676Z" fill="white"/>
<path d="M18.6286 16.2314C19.4926 18.6432 20.1705 21.1215 20.6683 23.6469C23.1188 21.9565 24.8298 19.2861 25.2588 16.2012C23.0366 15.8085 20.7903 15.8254 18.6286 16.2314Z" fill="white"/>
<path d="M7.47394 22.9898C9.37102 24.5981 11.8191 25.5708 14.5004 25.5708C16.1099 25.5708 17.6336 25.2119 19.0075 24.5836C18.5096 21.8757 17.7846 19.2259 16.8482 16.6533C13.1942 17.7203 9.89423 19.9134 7.47394 22.9898Z" fill="white"/>
</g>
<defs>
<clipPath id="clip0">
<rect width="29" height="29" fill="white" transform="translate(0 0.195557)"/>
</clipPath>
</defs>
</svg>
